<?xml version="1.0" encoding="UTF-8" standalone="no"?><!DOCTYPE svg PUBLIC "-//W3C//DTD SVG 1.1//EN" "http://www.w3.org/Graphics/SVG/1.1/DTD/svg11.dtd"><svg width="100%" height="100%" viewBox="0 0 1775 888" version="1.1" xmlns="http://www.w3.org/2000/svg" xmlns:xlink="http://www.w3.org/1999/xlink" xml:space="preserve" xmlns:serif="http://www.serif.com/" style="fill-rule:evenodd;clip-rule:evenodd;stroke-linejoin:round;stroke-miterlimit:2;"><g><path d="M1696.88,441.292c0,208.366 -168.913,377.283 -377.279,377.283c-208.367,0 -377.288,-168.917 -377.288,-377.283c0,-208.367 168.921,-377.279 377.288,-377.279c208.366,-0 377.279,168.912 377.279,377.279Z" style="fill:#e51e25;fill-rule:nonzero;"/><path d="M1155.23,261.437c-1.579,12.942 -1.579,34.409 -0,47.35c1.263,9.159 8.204,17.838 20.525,17.838c10.571,-0 18.783,-6.471 20.517,-17.838c1.733,-12.941 1.733,-34.408 -0,-47.35c-1.263,-9.316 -8.05,-17.683 -20.517,-17.841c-10.262,-0 -19.1,6.317 -20.525,17.841Zm20.525,-32.837c18.938,-0 32.983,12.471 35.504,32.837c1.579,12.625 1.425,34.725 0,47.35c-1.887,17.363 -14.671,32.834 -35.504,32.834c-18.946,-0 -32.992,-12.467 -35.525,-32.834c-1.579,-12.783 -1.579,-34.725 -0,-47.35c2.05,-17.208 14.683,-32.837 35.525,-32.837Z" style="fill:#fff;fill-rule:nonzero;"/><path d="M1256.26,289.846c-0.47,6.471 -0.47,15.629 0,22.1c0.634,8.366 6.542,15.783 17.434,15.783c10.895,0 16.796,-7.417 17.429,-15.783c0.471,-6.471 0.471,-15.629 -0,-22.1c-0.633,-8.363 -6.534,-15.784 -17.429,-15.784c-10.892,0 -16.8,7.421 -17.434,15.784Zm48.284,-0c0.471,6.316 0.471,15.791 -0,22.1c-1.271,16.575 -12.696,29.996 -29.275,29.996c-7.259,-0 -10.796,-3.95 -13.955,-3.95c-2.37,-0 -3.474,0.946 -3.474,3.95l-0,26.829c-0,1.737 -1.417,3.158 -3.159,3.158l-7.887,0c-1.738,0 -3.155,-1.421 -3.155,-3.158l0,-104.179c0,-1.734 1.417,-3.155 3.155,-3.155l5.366,0c0.95,0 1.575,0.471 2.213,1.105c0.941,1.104 2.367,2.521 3.946,2.521c4.575,-0 5.275,-5.205 16.95,-5.205c16.579,0 28.004,13.417 29.275,29.988Z" style="fill:#fff;fill-rule:nonzero;"/><path d="M1352.52,292.846l32.825,-0c0.946,-0 1.579,-0.634 1.579,-1.579c-0,-10.892 -8.046,-17.205 -17.838,-17.205c-10.887,0 -18.145,7.58 -18.145,17.205c-0,0.945 0.624,1.579 1.579,1.579Zm16.412,34.883c8.204,0 14.363,-4.1 16.259,-9.942c0.637,-2.05 2.208,-2.683 3.629,-2.683l8.05,0c1.579,0 3.004,0.946 2.687,3.154c-1.896,13.734 -14.212,23.684 -30.625,23.684c-18.946,-0 -31.096,-13.421 -32.358,-29.996c-0.479,-6.309 -0.479,-15.784 -0,-22.1c1.262,-16.571 13.412,-29.988 32.358,-29.988c17.675,0 31.567,14.204 31.567,31.567l-0,10.892c-0.154,1.737 -1.417,3.158 -3.159,3.158l-45.141,-0c-0.942,-0 -1.579,0.633 -1.579,1.579c-0,14.363 7.416,20.675 18.312,20.675Z" style="fill:#fff;fill-rule:nonzero;"/><path d="M1448,337.204c-0,1.734 -1.417,3.154 -3.15,3.154l-7.896,0c-1.742,0 -3.158,-1.42 -3.158,-3.154l-0,-72.612c-0,-1.734 1.416,-3.155 3.158,-3.155l6.942,0c0.954,0 1.579,0.471 2.212,1.105c0.946,1.104 2.363,2.521 3.942,2.521c4.579,-0 5.842,-5.205 16.892,-5.205c16.579,0 29.991,12.625 29.991,29.988l0,47.358c0,1.734 -1.416,3.154 -3.15,3.154l-7.895,0c-1.742,0 -3.159,-1.42 -3.159,-3.154l0,-47.358c0,-9.154 -7.575,-15.784 -17.362,-15.784c-9.792,0 -17.367,5.842 -17.367,14.996l-0,48.146Z" style="fill:#fff;fill-rule:nonzero;"/><path d="M1176.69,483.196c9.629,-0 17.041,-8.683 18.158,-18.15c1.571,-12.629 1.571,-31.571 0,-44.196c-1.117,-9.471 -8.529,-18.154 -18.158,-18.154l-16.575,-0c-0.946,-0 -1.579,0.633 -1.579,1.575l-0,77.35c-0,0.946 0.633,1.575 1.579,1.575l16.575,-0Zm-33.154,11.837l-0,-104.175c-0,-1.737 1.424,-3.158 3.158,-3.158l29.996,-0c18.312,-0 30.941,14.838 33.145,33.15c1.58,12.625 1.417,31.567 0,44.196c-2.05,18.15 -14.833,33.146 -33.145,33.146l-29.996,-0c-1.734,-0 -3.158,-1.421 -3.158,-3.159Z" style="fill:#fff;fill-rule:nonzero;"/><path d="M1267.92,463.467c-8.05,-0 -11.842,4.262 -11.842,10.891c0,7.734 4.892,12.309 14.046,12.309c14.525,-0 19.892,-5.838 19.892,-16.571l-0,-5.05c-0,-0.95 -0.629,-1.579 -1.579,-1.579l-20.517,-0Zm-8.529,-23.204c-0,2.683 -2.204,2.683 -3.63,2.683l-7.104,-0c-2.37,-0 -3.158,-1.263 -3.158,-3.158c0,-14.68 15.154,-22.096 28.571,-22.096c15.471,-0 28.891,10.887 28.891,28.412l0,48.929c0,1.738 -1.425,3.159 -3.158,3.159l-5.371,-0c-0.941,-0 -1.579,-0.317 -2.204,-1.104c-0.954,-1.263 -1.579,-3.317 -3.158,-3.317c-2.842,-0 -6.788,6 -18.475,6c-19.408,-0 -28.725,-11.838 -28.725,-25.258c-0,-13.101 9.471,-23.992 26.05,-23.992l19.254,-0c0.95,-0 1.579,-0.629 1.579,-1.579l0,-5.204c0,-8.526 -6.625,-12.471 -14.683,-12.471c-5.208,-0 -14.679,1.416 -14.679,8.996Z" style="fill:#fff;fill-rule:nonzero;"/><path d="M1369.08,434.267c-0.941,-0 -1.579,0.629 -1.579,1.575l0,38.671c0,5.683 4.583,11.05 11.054,11.05c6.467,-0 11.05,-5.367 11.05,-11.05c0,-1.734 1.417,-3.151 3.159,-3.151l7.891,0c1.734,0 3.15,1.417 3.15,3.151c0,13.891 -11.358,25.258 -25.25,25.258c-13.891,-0 -25.254,-11.367 -25.254,-25.258l0,-38.671c0,-0.946 -0.633,-1.575 -1.579,-1.575l-15.788,-0c-1.733,-0 -3.158,-1.425 -3.158,-3.163l0,-7.892c0,-1.733 1.425,-3.154 3.158,-3.154l15.788,0c0.946,0 1.579,-0.633 1.579,-1.579l0,-24.466c0,-1.734 1.417,-3.155 3.158,-3.155l7.884,0c1.741,0 3.158,1.421 3.158,3.155l0,24.466c0,0.946 0.638,1.579 1.579,1.579l25.263,0c1.733,0 3.154,1.421 3.154,3.154l-0,7.892c-0,1.738 -1.421,3.163 -3.154,3.163l-25.263,-0Z" style="fill:#fff;fill-rule:nonzero;"/><path d="M1460.48,463.467c-8.05,-0 -11.842,4.262 -11.842,10.891c0,7.734 4.892,12.309 14.046,12.309c14.525,-0 19.888,-5.838 19.888,-16.571l-0,-5.05c-0,-0.95 -0.625,-1.579 -1.575,-1.579l-20.517,-0Zm-8.529,-23.204c-0,2.683 -2.204,2.683 -3.629,2.683l-7.105,-0c-2.37,-0 -3.158,-1.263 -3.158,-3.158c0,-14.68 15.154,-22.096 28.571,-22.096c15.471,-0 28.892,10.887 28.892,28.412l-0,48.929c-0,1.738 -1.425,3.159 -3.159,3.159l-5.37,-0c-0.946,-0 -1.58,-0.317 -2.205,-1.104c-0.954,-1.263 -1.579,-3.317 -3.158,-3.317c-2.842,-0 -6.788,6 -18.475,6c-19.408,-0 -28.725,-11.838 -28.725,-25.258c-0,-13.101 9.471,-23.992 26.05,-23.992l19.254,-0c0.942,-0 1.579,-0.629 1.579,-1.579l0,-5.204c0,-8.526 -6.625,-12.471 -14.683,-12.471c-5.208,-0 -14.679,1.416 -14.679,8.996Z" style="fill:#fff;fill-rule:nonzero;"/><path d="M1282.13,650.696c0,1.737 -1.425,3.154 -3.158,3.154l-14.209,-0c-1.733,-0 -3.158,-1.417 -3.158,-3.154l0,-14.209c0,-1.733 1.425,-3.154 3.158,-3.154l14.209,0c1.733,0 3.158,1.421 3.158,3.154l0,14.209Z" style="fill:#fff;fill-rule:nonzero;"/><path d="M1369.08,655.433c-18.937,0 -30.304,-13.416 -31.566,-29.991c-0.471,-6.317 -0.471,-15.788 -0,-22.1c1.262,-16.575 12.629,-29.992 31.566,-29.992c17.684,-0 30.471,11.525 30.471,26.833c0,1.738 -0.946,3.159 -2.687,3.159l-8.521,-0c-1.425,-0 -3.004,-0.788 -3.004,-2.53c-0,-7.416 -6.467,-13.258 -16.259,-13.258c-10.887,0 -16.733,7.421 -17.358,15.788c-0.471,6.471 -0.471,15.625 0,22.1c0.625,8.362 6.471,15.783 17.358,15.783c9.629,0 16.105,-5.679 16.105,-13.1c-0,-2.054 1.579,-2.683 2.995,-2.683l8.213,-0c1.733,-0 3.158,1.42 3.158,3.154c0,15.312 -12.787,26.837 -30.471,26.837Z" style="fill:#fff;fill-rule:nonzero;"/><path d="M1438.22,653.85c-1.742,-0 -3.159,-1.417 -3.159,-3.154l0,-105.283c0,-1.738 1.417,-3.155 3.159,-3.155l7.891,0c1.734,0 3.159,1.417 3.159,3.155l-0,28.566c-0,1.421 1.262,3.317 3.466,3.317c3.159,-0 7.267,-3.946 14.53,-3.946c16.566,-0 29.987,13.417 29.987,29.992l-0,47.354c-0,1.737 -1.425,3.154 -3.158,3.154l-7.892,-0c-1.738,-0 -3.158,-1.417 -3.158,-3.154l-0,-47.354c-0,-8.209 -7.096,-15.788 -16.888,-15.788c-9.791,0 -16.887,6.788 -16.887,15l-0,48.142c-0,1.737 -1.425,3.154 -3.159,3.154l-7.891,-0Z" style="fill:#fff;fill-rule:nonzero;"/><path d="M835.921,444.583c-0,-210.183 -170.383,-380.57 -380.575,-380.57c-210.183,-0 -380.575,170.387 -380.575,380.57c-0,210.184 170.392,380.575 380.575,380.575c210.192,0 380.575,-170.391 380.575,-380.575Z" style="fill:#e51e25;fill-rule:nonzero;"/><path d="M343.229,641.171c-3.55,5.908 -7.092,8.866 -12.412,8.866l-10.05,0c-7.684,0 -14.184,-8.275 -9.459,-16.554l252.309,-388.379c3.537,-5.908 7.679,-8.871 12.995,-8.871l8.871,0c7.688,0 13.596,8.279 9.463,16.555l-251.717,388.383Z" style="fill:#fff;fill-rule:nonzero;"/><path d="M572.121,608.408c15.796,0 27.975,-13.529 29.783,-29.07c2.596,-20.73 2.596,-38.78 0,-59.505c-1.808,-15.546 -13.987,-27.625 -29.783,-27.625l-29.388,0c-1.558,0 -2.591,1.038 -2.591,2.592l-0,111.017c-0,1.554 1.033,2.591 2.591,2.591l29.388,0Zm-62.379,24.504l-0,-165.208c-0,-2.85 2.325,-5.179 5.183,-5.179l62.979,-0c30.046,-0 50.775,22.179 54.404,52.237c2.596,20.725 2.334,48.917 0,69.646c-3.37,29.792 -24.358,53.684 -54.404,53.684l-62.979,-0c-2.858,-0 -5.183,-2.334 -5.183,-5.18Z" style="fill:#fff;fill-rule:nonzero;"/><path d="M375.771,375.517c-2.367,16.554 -14.779,30.146 -33.104,30.146c-21.284,-0 -30.746,-16.55 -33.109,-30.146c-2.954,-18.325 -2.954,-41.384 0,-60.888c2.363,-15.962 14.78,-28.966 33.109,-28.966c21.279,-0 31.329,16.55 33.104,28.966c2.954,19.504 2.954,42.563 -0,60.888Zm33.104,-59.709c-4.725,-37.833 -30.742,-62.066 -66.208,-62.066c-39.013,-0 -62.663,30.145 -66.804,62.066c-2.946,23.646 -2.946,35.471 -0,59.117c4.733,38.425 31.329,62.071 66.804,62.071c39.012,-0 62.662,-29.558 66.208,-62.071c2.954,-23.646 2.954,-35.471 -0,-59.117Z" style="fill:#fff;fill-rule:nonzero;"/></g></svg>